HIERARCHY
ROOT Hips
{
 OFFSET 0.000000 0.000000 0.000000
 CHANNELS 6 Xposition Yposition Zposition Yrotation Xrotation Zrotation
 JOINT Chest
 {
  OFFSET 0.000000 14.634200 -0.016200
  CHANNELS 3 Yrotation Xrotation Zrotation
  JOINT Chest2
  {
   OFFSET 0.000000 8.932900 0.033000
   CHANNELS 3 Yrotation Xrotation Zrotation
   JOINT Chest3
   {
    OFFSET 0.000000 8.892300 0.000000
    CHANNELS 3 Yrotation Xrotation Zrotation
    JOINT Chest4
    {
     OFFSET 0.000000 8.883200 0.000000
     CHANNELS 3 Yrotation Xrotation Zrotation
     JOINT Neck
     {
      OFFSET 0.000000 13.173600 0.000000
      CHANNELS 3 Yrotation Xrotation Zrotation
      JOINT Head
      {
       OFFSET 0.000000 8.324600 0.069800
       CHANNELS 3 Yrotation Xrotation Zrotation
       End Site
       {
        OFFSET 0.000000 15.692400 0.036900
       }
      }
     }
     JOINT RightCollar
     {
      OFFSET -2.619200 8.772200 0.000000
      CHANNELS 3 Yrotation Xrotation Zrotation
      JOINT RightShoulder
      {
       OFFSET -12.922000 0.000000 0.000000
       CHANNELS 3 Yrotation Xrotation Zrotation
       JOINT RightElbow
       {
        OFFSET 0.000000 -27.880900 0.000000
        CHANNELS 3 Yrotation Xrotation Zrotation
        JOINT RightWrist
        {
         OFFSET 0.000000 -22.758700 0.008200
         CHANNELS 3 Yrotation Xrotation Zrotation
         End Site
         {
          OFFSET 0.000000 -16.965000 0.000000
         }
        }
       }
      }
     }
     JOINT LeftCollar
     {
      OFFSET 2.619200 8.772200 0.000000
      CHANNELS 3 Yrotation Xrotation Zrotation
      JOINT LeftShoulder
      {
       OFFSET 12.922000 0.000000 0.000000
       CHANNELS 3 Yrotation Xrotation Zrotation
       JOINT LeftElbow
       {
        OFFSET 0.000000 -27.880900 0.000000
        CHANNELS 3 Yrotation Xrotation Zrotation
        JOINT LeftWrist
        {
         OFFSET 0.000000 -22.758700 0.008200
         CHANNELS 3 Yrotation Xrotation Zrotation
         End Site
         {
          OFFSET 0.000000 -16.965000 0.000000
         }
        }
       }
      }
     }
    }
   }
  }
 }
 JOINT RightHip
 {
  OFFSET -12.026800 0.080100 0.008100
  CHANNELS 3 Yrotation Xrotation Zrotation
  JOINT RightKnee
  {
   OFFSET 0.000000 -42.600800 -0.000200
   CHANNELS 3 Yrotation Xrotation Zrotation
   JOINT RightAnkle
   {
    OFFSET 0.000000 -38.219300 0.054300
    CHANNELS 3 Yrotation Xrotation Zrotation
    JOINT RightToe
    {
     OFFSET 0.000000 -9.685800 15.804700
     CHANNELS 3 Yrotation Xrotation Zrotation
     End Site
     {
      OFFSET 0.000000 -1.422300 5.761700
     }
    }
   }
  }
 }
 JOINT LeftHip
 {
  OFFSET 12.026800 0.080100 0.008100
  CHANNELS 3 Yrotation Xrotation Zrotation
  JOINT LeftKnee
  {
   OFFSET 0.000000 -42.600800 -0.000200
   CHANNELS 3 Yrotation Xrotation Zrotation
   JOINT LeftAnkle
   {
    OFFSET 0.000000 -38.219300 0.054300
    CHANNELS 3 Yrotation Xrotation Zrotation
    JOINT LeftToe
    {
     OFFSET 0.000000 -9.685800 15.804700
     CHANNELS 3 Yrotation Xrotation Zrotation
     End Site
     {
      OFFSET 0.000000 -1.422300 5.761700
     }
    }
   }
  }
 }
}
MOTION
Frames: 15
Frame Time: 0.008333
-9.743890 129.251647 20.442180 169.964663 -20.108947 3.373314 3.553296 18.738206 3.141000 0.362690 2.233274 0.307719 0.607242 3.679011 0.516055 2.997138 16.240502 2.635361 7.567286 12.855095 -0.415283 8.343110 -12.044938 -2.212818 4.122445 -5.245020 -5.743889 11.273617 -13.954176 4.303452 48.055621 -50.304700 -23.639302 25.241218 -26.515312 -80.354082 -6.660051 -3.077834 3.833477 3.599276 -15.828989 -7.326353 -19.250351 -60.727183 -10.853584 -15.335028 -32.971172 46.199366 11.368930 -55.302628 1.172138 -33.406624 80.309262 -42.340992 -6.450648 -15.444821 8.851448 0.002736 -0.007392 0.001677 15.650192 -52.808396 -21.643998 87.043305 74.947819 92.310870 6.885417 -2.005140 -6.177866 0.000378 0.000808 0.000231
-9.743387 129.251618 20.441948 169.963504 -20.107589 3.372762 3.547045 18.742426 3.137205 0.362319 2.233746 0.307925 0.613149 3.675204 0.518066 2.984223 16.248805 2.635414 7.561060 12.851347 -0.406207 8.340094 -12.055979 -2.197304 4.117200 -5.214640 -5.751030 11.263117 -13.964889 4.326116 48.146753 -50.293339 -23.756899 25.186814 -26.529527 -80.271246 -6.650994 -3.073478 3.826652 3.585491 -15.822149 -7.319890 -19.259172 -60.749327 -10.828075 -15.317990 -32.961990 46.187144 11.364029 -55.303087 1.174110 -33.458315 80.301053 -42.388715 -6.444162 -15.448349 8.853816 0.004801 -0.008487 0.002942 15.665993 -52.799409 -21.661394 87.009427 74.941102 92.289585 6.880369 -2.009306 -6.176353 -0.001362 0.003215 -0.000835
-9.742585 129.251666 20.441713 169.963818 -20.106926 3.370301 3.542270 18.746619 3.136103 0.361929 2.234462 0.307995 0.609215 3.675769 0.516027 2.984891 16.252114 2.637402 7.559247 12.843760 -0.396568 8.349893 -12.061843 -2.199830 4.124019 -5.217517 -5.753576 11.228585 -13.945460 4.347406 48.219137 -50.297198 -23.805823 25.151957 -26.517464 -80.232027 -6.643140 -3.077766 3.824223 3.559276 -15.780979 -7.319451 -19.289191 -60.804315 -10.776351 -15.303072 -32.940695 46.170410 11.347872 -55.302139 1.178044 -33.447717 80.298915 -42.378386 -6.433475 -15.452839 8.854590 0.002077 -0.008106 0.001273 15.664682 -52.799425 -21.660037 87.014000 74.938690 92.299658 6.863627 -2.012892 -6.179567 0.001009 0.001794 0.000618
-9.742624 129.251671 20.441731 169.964206 -20.105235 3.371017 3.539741 18.750143 3.134366 0.361671 2.235343 0.307865 0.603645 3.681950 0.515828 2.987210 16.250560 2.635030 7.566307 12.823715 -0.370332 8.352559 -12.058309 -2.212226 4.116662 -5.205879 -5.755876 11.222343 -13.957327 4.355800 48.239853 -50.297503 -23.838638 25.113590 -26.517718 -80.191096 -6.640059 -3.068908 3.821510 3.559984 -15.789315 -7.316597 -19.300033 -60.822704 -10.769189 -15.294814 -32.919999 46.151361 11.335667 -55.303017 1.177632 -33.415091 80.299917 -42.347535 -6.430023 -15.456171 8.856835 0.000144 -0.008227 0.000088 15.672313 -52.797551 -21.670398 87.002449 74.931532 92.294717 6.849558 -2.014281 -6.178672 0.001011 0.000878 0.000620
-9.742667 129.251510 20.442192 169.965336 -20.102097 3.371539 3.538870 18.751371 3.135204 0.361538 2.236397 0.307665 0.602759 3.685543 0.514990 2.985960 16.252210 2.633021 7.580367 12.802517 -0.352244 8.376520 -12.104379 -2.176931 4.100437 -5.174397 -5.755693 11.217475 -13.989184 4.359567 48.246279 -50.306140 -23.884315 25.094146 -26.533673 -80.134525 -6.640087 -3.048075 3.808312 3.562286 -15.811603 -7.302988 -19.314887 -60.835316 -10.762485 -15.287890 -32.903306 46.135895 11.324247 -55.302807 1.177409 -33.347555 80.302478 -42.281639 -6.436096 -15.465652 8.864822 -0.000201 -0.007910 -0.000123 15.677823 -52.799228 -21.678454 87.000720 74.928791 92.294764 6.839984 -2.015747 -6.173239 0.000077 0.000369 0.000047
-9.743281 129.251809 20.441239 169.966296 -20.104183 3.375518 3.536344 18.756617 3.133093 0.361535 2.237548 0.307518 0.602728 3.687302 0.514733 2.985001 16.255963 2.631343 7.596796 12.781153 -0.338259 8.375955 -12.107789 -2.176017 4.099077 -5.177489 -5.757251 11.195051 -13.967479 4.377263 48.303463 -50.315046 -23.941815 25.074218 -26.536502 -80.111856 -6.637255 -3.041657 3.802836 3.584029 -15.808838 -7.296278 -19.346497 -60.850110 -10.760725 -15.286557 -32.881266 46.112467 11.317266 -55.296969 1.175903 -33.279072 80.307860 -42.215171 -6.447650 -15.475400 8.872049 0.002664 -0.007463 0.001632 15.678400 -52.795251 -21.683569 87.006611 74.926058 92.300386 6.831222 -2.019127 -6.173747 0.001798 0.000373 0.001102
-9.743342 129.251823 20.440630 169.964291 -20.103948 3.377876 3.535317 18.759560 3.132612 0.363266 2.236430 0.306255 0.601373 3.691299 0.516101 2.985057 16.256710 2.629137 7.610948 12.764624 -0.328266 8.380647 -12.114302 -2.172282 4.095358 -5.163296 -5.756697 11.182652 -13.955112 4.384019 48.362712 -50.327052 -23.999116 25.053631 -26.537067 -80.098061 -6.632697 -3.033124 3.798646 3.665034 -15.795897 -7.307805 -19.434261 -60.864182 -10.758162 -15.284840 -32.854492 46.084391 11.310646 -55.295473 1.171148 -33.174283 80.320387 -42.111369 -6.458186 -15.488013 8.882992 0.000146 -0.009586 0.000090 15.679600 -52.795720 -21.687885 87.024633 74.929785 92.320592 6.835296 -2.021936 -6.178429 0.003636 0.000038 0.002228
-9.742830 129.251633 20.439871 169.961273 -20.102661 3.377473 3.536071 18.763449 3.135995 0.364104 2.232925 0.303648 0.601143 3.695013 0.518482 2.985468 16.253701 2.626063 7.615941 12.759021 -0.325070 8.412582 -12.149898 -2.156600 4.097422 -5.151820 -5.761721 11.185609 -13.943242 4.389528 48.389795 -50.338996 -24.039583 25.070983 -26.524419 -80.050182 -6.630523 -3.028276 3.797360 3.702090 -15.791032 -7.320309 -19.489215 -60.864292 -10.733857 -15.269145 -32.836476 46.060803 11.312575 -55.291780 1.166848 -33.088468 80.326063 -42.024386 -6.467999 -15.508245 8.913728 0.002812 -0.012394 0.001723 15.681154 -52.801232 -21.693348 87.032843 74.926422 92.324773 6.860189 -2.014932 -6.175565 0.002700 -0.002595 0.001655
-9.743099 129.250926 20.439916 169.959030 -20.094889 3.377664 3.539627 18.763487 3.137894 0.360686 2.231497 0.306799 0.603159 3.690792 0.514881 2.985330 16.262991 2.631333 7.635707 12.737393 -0.316191 8.461079 -12.197010 -2.139532 4.104358 -5.141496 -5.781713 11.187318 -13.944841 4.396252 48.423662 -50.339480 -24.088637 25.076686 -26.518757 -80.018681 -6.629693 -3.033847 3.791991 3.733320 -15.786422 -7.338551 -19.543045 -60.860999 -10.696082 -15.252667 -32.826681 46.038875 11.322235 -55.295505 1.155474 -33.026023 80.329248 -41.957447 -6.472623 -15.515986 8.922137 0.002806 -0.009699 0.001719 15.688167 -52.811357 -21.700849 87.050299 74.921411 92.341711 6.864524 -2.015829 -6.176169 0.003009 -0.003139 0.001844
-9.743313 129.250493 20.438541 169.959711 -20.090158 3.375615 3.543508 18.765437 3.140031 0.363593 2.242720 0.305849 0.596945 3.680865 0.519042 2.985833 16.263383 2.632394 7.653794 12.718276 -0.305481 8.467996 -12.211714 -2.131756 4.105795 -5.147131 -5.788209 11.199393 -13.931841 4.392667 48.495666 -50.295124 -24.163276 25.026005 -26.546011 -80.024408 -6.622812 -3.011916 3.790738 3.746257 -15.805280 -7.363211 -19.583148 -60.859144 -10.657924 -15.231211 -32.814893 46.014236 11.331905 -55.297303 1.140112 -32.977731 80.332045 -41.901223 -6.471119 -15.522256 8.932122 0.002155 -0.008651 0.001321 15.688191 -52.817557 -21.702213 87.066286 74.916282 92.356609 6.866920 -2.019821 -6.178583 0.004309 -0.002491 0.002640
-9.743099 129.249875 20.437128 169.964011 -20.083184 3.368786 3.543465 18.760338 3.145263 0.368599 2.252576 0.299814 0.604531 3.690913 0.515687 2.982240 16.247591 2.642172 7.663483 12.701749 -0.293005 8.473262 -12.232085 -2.114668 4.104190 -5.144083 -5.794463 11.198617 -13.924594 4.393348 48.527861 -50.277563 -24.193458 25.035211 -26.538762 -80.025556 -6.622322 -3.002399 3.791997 3.741282 -15.806228 -7.381197 -19.611518 -60.863267 -10.618814 -15.206774 -32.803192 45.990444 11.340197 -55.301654 1.119617 -32.914826 80.336859 -41.822425 -6.478561 -15.527642 8.980295 0.005385 -0.007350 0.003300 15.688002 -52.830190 -21.706036 87.088948 74.911240 92.382551 6.863210 -2.019544 -6.172660 0.002991 -0.003333 0.001833
-9.742978 129.249141 20.435641 169.969987 -20.074218 3.360335 3.547534 18.762143 3.145070 0.367720 2.251543 0.302503 0.607318 3.695146 0.513022 2.987746 16.245693 2.643980 7.673852 12.684359 -0.271964 8.462966 -12.244181 -2.108523 4.097531 -5.149369 -5.793845 11.185907 -13.920187 4.399908 48.561531 -50.264050 -24.209631 25.049038 -26.527563 -80.022810 -6.625649 -2.997019 3.797268 3.727901 -15.811187 -7.387868 -19.625570 -60.867881 -10.593786 -15.198605 -32.801655 45.982938 11.349924 -55.309016 1.096820 -32.977553 80.328879 -41.871352 -6.458193 -15.535700 9.019676 0.002905 -0.006125 0.001780 15.699783 -52.843940 -21.720352 87.105873 74.905917 92.411829 6.862744 -2.014389 -6.170462 0.002207 -0.004558 0.001352
-9.744011 129.247362 20.436784 169.981997 -20.052426 3.351725 3.546300 18.754401 3.143292 0.368988 2.252019 0.300398 0.604339 3.687133 0.518062 3.001728 16.273653 2.626252 7.666689 12.644796 -0.247078 8.462352 -12.249362 -2.105608 4.080408 -5.179355 -5.780938 11.187574 -13.912749 4.393798 48.568507 -50.279710 -24.214719 25.090869 -26.491599 -79.968729 -6.637963 -3.016206 3.821614 3.704395 -15.805332 -7.390917 -19.642869 -60.882142 -10.555862 -15.197770 -32.802220 45.982633 11.350900 -55.331042 1.080458 -33.018733 80.323893 -41.912433 -6.455077 -15.537601 9.075839 0.002562 -0.005441 0.001570 15.703138 -52.867208 -21.734349 87.096914 74.893856 92.406208 6.856127 -2.013592 -6.164254 0.000294 -0.000268 0.000180
-9.745131 129.246512 20.435281 169.989107 -20.040453 3.346834 3.549702 18.755607 3.138145 0.371038 2.258623 0.297475 0.600023 3.674184 0.525411 3.005134 16.286975 2.614896 7.666221 12.621730 -0.229509 8.454814 -12.268749 -2.084087 4.065286 -5.194967 -5.774403 11.223028 -13.918353 4.370334 48.590573 -50.245617 -24.181308 25.116338 -26.483330 -79.980222 -6.642849 -3.030842 3.839859 3.686314 -15.781646 -7.398214 -19.670995 -60.903983 -10.510464 -15.181599 -32.793283 45.964520 11.355627 -55.344143 1.063664 -33.027979 80.325507 -41.919456 -6.459279 -15.536825 9.120010 0.002876 -0.004792 0.001762 15.708307 -52.881481 -21.746316 87.102330 74.890448 92.417323 6.856833 -2.011007 -6.162669 -0.000032 -0.000050 -0.000020
-9.746486 129.245605 20.433848 169.997506 -20.027919 3.342721 3.551537 18.759342 3.131652 0.367440 2.250183 0.302213 0.604477 3.685023 0.518282 3.003965 16.282954 2.614143 7.661027 12.608127 -0.216201 8.425470 -12.304089 -2.047005 4.052138 -5.205933 -5.773286 11.274508 -13.926604 4.328310 48.586544 -50.236577 -24.133617 25.142895 -26.477505 -79.983603 -6.644433 -3.025005 3.849648 3.693885 -15.777811 -7.403339 -19.720157 -60.919757 -10.474672 -15.168336 -32.779713 45.942182 11.369077 -55.361345 1.038027 -33.056131 80.331730 -41.941261 -6.461521 -15.535318 9.163011 0.003904 -0.005804 0.002392 15.709245 -52.895976 -21.755656 87.086902 74.892418 92.409191 6.855501 -2.000453 -6.162597 0.001983 -0.000249 0.001215
